<?xml version="1.0" standalone="no"?>
<!DOCTYPE svg PUBLIC "-//W3C//DTD SVG 20010904//EN"
 "http://www.w3.org/TR/2001/REC-SVG-20010904/DTD/svg10.dtd">
<svg version="1.0" xmlns="http://www.w3.org/2000/svg"
 width="500.000000pt" height="500.000000pt" viewBox="0 0 500.000000 500.000000"
 preserveAspectRatio="xMidYMid meet">
<metadata>
Created by potrace 1.14, written by Peter Selinger 2001-2017
</metadata>
<g transform="translate(0.000000,500.000000) scale(0.100000,-0.100000)"
fill="#000000" stroke="none">
<path d="M2180 3729 c-162 -93 -301 -177 -307 -186 -10 -13 -13 -104 -13 -374
0 -326 2 -359 18 -377 29 -33 591 -352 621 -352 27 0 549 295 606 343 l30 25
3 156 c4 181 2 183 -74 138 l-49 -28 -5 -97 c-3 -67 -10 -101 -20 -111 -34
-34 -466 -276 -492 -276 -27 0 -442 233 -485 273 -23 20 -23 23 -23 307 0 284
0 287 23 307 39 35 463 273 486 273 27 0 469 -252 494 -282 14 -17 17 -41 17
-149 0 -97 3 -129 13 -129 7 0 35 15 62 33 l50 32 3 132 c2 125 1 133 -20 156
-32 35 -591 357 -620 357 -13 0 -156 -77 -318 -171z"/>
<path d="M2295 3539 c-226 -133 -226 -120 5 -255 96 -57 184 -103 195 -104 11
0 82 36 158 80 l137 79 -2 -171 -3 -171 -135 -79 c-102 -59 -141 -78 -161 -74
-14 3 -81 38 -150 78 l-124 74 -3 109 c-1 60 -7 115 -13 122 -17 20 -100 63
-110 57 -5 -3 -9 -83 -9 -178 0 -152 2 -175 18 -188 28 -25 386 -228 401 -228
13 0 289 156 384 216 l37 24 0 233 c0 172 -3 237 -12 249 -15 18 -102 68 -118
68 -6 0 -71 -34 -143 -75 -72 -41 -139 -75 -150 -75 -22 0 -118 53 -137 74 -9
12 -4 20 31 42 79 50 106 57 142 39 31 -16 34 -15 84 12 29 15 55 34 58 40 7
19 -142 103 -180 102 -19 0 -91 -36 -200 -100z"/>
<path d="M1670 1910 l0 -180 158 0 c209 0 202 -7 202 183 0 186 10 177 -200
177 l-160 0 0 -180z m290 0 l0 -110 -110 0 -110 0 0 110 0 110 110 0 110 0 0
-110z"/>
<path d="M2125 2065 c-24 -24 -25 -28 -25 -180 l0 -155 40 0 40 0 0 75 0 75
105 0 105 0 0 -75 0 -75 41 0 40 0 -3 161 c-4 208 4 199 -185 199 -129 0 -135
-1 -158 -25z m265 -80 l0 -35 -105 0 -105 0 0 35 0 35 105 0 105 0 0 -35z"/>
<path d="M2540 1910 l0 -180 35 0 35 0 0 75 0 75 124 0 c123 0 125 0 145 26
15 19 21 41 21 79 0 38 -6 60 -21 79 l-20 26 -160 0 -159 0 0 -180z m290 75
l0 -35 -110 0 -110 0 0 35 0 35 110 0 110 0 0 -35z"/>
<path d="M2970 1910 l0 -180 35 0 34 0 3 73 3 72 128 5 c152 6 157 9 157 105
0 51 -4 65 -23 83 -22 21 -33 22 -180 22 l-157 0 0 -180z m290 75 l0 -35 -110
0 -110 0 0 35 0 35 110 0 110 0 0 -35z"/>
<path d="M1475 1515 c-24 -23 -25 -30 -25 -145 0 -125 11 -171 45 -184 9 -3
86 -6 171 -6 l154 0 0 35 0 35 -145 0 -145 0 0 110 0 110 145 0 145 0 0 35 0
35 -160 0 c-157 0 -161 -1 -185 -25z"/>
<path d="M1890 1360 l0 -180 35 0 35 0 0 75 c0 65 2 75 18 75 10 0 51 -34 92
-75 74 -74 75 -75 127 -75 l53 0 0 35 c0 34 -1 35 -38 35 -30 0 -45 7 -70 33
-18 18 -32 36 -32 40 0 4 22 7 49 7 66 0 91 29 91 105 0 38 -6 60 -21 79 l-20
26 -160 0 -159 0 0 -180z m290 75 l0 -35 -110 0 -110 0 0 35 0 35 110 0 110 0
0 -35z"/>
<path d="M2320 1457 c0 -121 0 -121 157 -127 l128 -5 3 -37 3 -38 -145 0 -146
0 0 -35 0 -35 155 0 c152 0 156 1 180 25 24 24 25 28 25 180 l0 155 -35 0 -35
0 0 -70 0 -70 -110 0 -110 0 0 70 0 70 -35 0 -35 0 0 -83z"/>
<path d="M2750 1360 l0 -180 35 0 34 0 3 73 3 72 125 3 c152 3 160 8 160 108
0 101 -5 104 -200 104 l-160 0 0 -180z m290 75 l0 -35 -110 0 -110 0 0 35 0
35 110 0 110 0 0 -35z"/>
<path d="M3190 1505 l0 -35 70 0 70 0 0 -145 0 -145 35 0 35 0 0 145 0 145 75
0 75 0 0 35 0 35 -180 0 -180 0 0 -35z"/>
</g>
</svg>
